<?xml version="1.0" encoding="UTF-8"?><svg xmlns="http://www.w3.org/2000/svg" xmlns:xlink="http://www.w3.org/1999/xlink" contentScriptType="text/ecmascript" width="450" zoomAndPan="magnify" contentStyleType="text/css" viewBox="0 0 450 449.999984" height="449.999984" preserveAspectRatio="xMidYMid meet" version="1.0"><defs><clipPath id="clip-0"><path d="M 35.015625 136.605469 L 413 136.605469 L 413 441 L 35.015625 441 Z M 35.015625 136.605469 " clip-rule="nonzero"/></clipPath><clipPath id="clip-1"><path d="M 178.242188 6.101562 L 327.492188 6.101562 L 327.492188 180.101562 L 178.242188 180.101562 Z M 178.242188 6.101562 " clip-rule="nonzero"/></clipPath></defs><g clip-path="url(#clip-0)"><path fill="rgb(100%, 75.689697%, 2.749634%)" d="M 178.605469 412.097656 C 171.027344 411.328125 166.664062 406.691406 166.242188 399.121094 C 165.859375 391.949219 172.441406 385.855469 179.714844 386.390625 C 187.527344 386.964844 191.238281 391.816406 192.175781 398.734375 C 192.140625 406.191406 185.476562 412.804688 178.605469 412.097656 Z M 353.441406 399.234375 C 352.945312 406.769531 348.558594 411.425781 340.980469 412.117188 C 334.089844 412.75 327.140625 406.039062 327.582031 399.121094 C 328.078125 391.585938 332.328125 387.101562 340.0625 386.332031 C 347.355469 386.085938 353.902344 392.085938 353.441406 399.234375 Z M 302.964844 272.257812 C 322.699219 272.257812 341.460938 272.257812 361.921875 272.257812 C 359.28125 280.867188 356.753906 289.511719 353.996094 298.097656 C 351.449219 306.035156 350.648438 310.058594 341.496094 310.058594 C 327.601562 310.078125 313.703125 310.058594 299.808594 310.058594 C 300.917969 296.585938 301.933594 284.585938 302.964844 272.257812 Z M 177.171875 310.003906 C 175.640625 309.984375 174.050781 309.984375 172.632812 309.371094 C 170.300781 308.390625 168.882812 305.996094 168.003906 303.621094 C 164.117188 293.230469 160.078125 282.878906 156.097656 272.507812 C 176.730469 272.507812 196.023438 272.507812 216.542969 272.507812 C 217.558594 284.355469 218.574219 296.375 219.742188 310.039062 C 205.558594 310.039062 191.355469 310.039062 177.171875 310.003906 Z M 285.738281 309.582031 C 268.128906 309.582031 251.515625 309.582031 233.808594 309.582031 C 232.796875 297.273438 231.800781 285.273438 230.726562 272.527344 C 250.25 272.527344 269.183594 272.527344 288.78125 272.527344 C 287.75 285.140625 286.753906 297.160156 285.738281 309.582031 Z M 290.332031 257.824219 L 229.558594 258.148438 C 229.558594 258.148438 227.300781 228.015625 226.421875 215.574219 C 248.738281 215.574219 270.484375 215.574219 293.183594 215.574219 C 292.304688 227.84375 290.332031 257.824219 290.332031 257.824219 Z M 373.023438 237.503906 C 371.433594 242.660156 370.34375 250.808594 366.4375 254.660156 C 359.988281 261.042969 315.90625 257.824219 304.113281 257.824219 C 305.148438 243.582031 306.105469 230.183594 307.140625 215.882812 C 331.179688 215.882812 354.6875 215.882812 379.550781 215.882812 C 377.347656 223.089844 375.261719 230.316406 373.023438 237.503906 Z M 212.085938 215.289062 C 213.25 228.898438 214.398438 242.316406 215.722656 257.84375 C 209.539062 257.84375 171.675781 257.632812 158.433594 257.9375 C 152.824219 258.074219 149.550781 256.597656 147.617188 250.808594 C 143.789062 239.289062 139.136719 228.054688 134.292969 215.289062 C 160.84375 215.289062 185.859375 215.289062 212.085938 215.289062 Z M 299.730469 399.808594 C 299.921875 417.886719 311.945312 433.375 329.554688 438.492188 C 346.722656 443.496094 365.597656 436.308594 375.050781 420.875 C 383.1875 407.59375 383.835938 393.675781 376.449219 379.949219 C 368.429688 365.035156 355.261719 358.15625 338.550781 358.117188 C 293.835938 358.019531 249.101562 358.078125 204.371094 358.078125 C 186.433594 358.078125 186.433594 358.078125 182.644531 338.371094 C 186.589844 338.371094 301.015625 338.316406 354.476562 338.429688 C 363.546875 338.449219 371.261719 337.011719 374.382812 326.984375 C 386.898438 286.636719 399.589844 246.324219 411.917969 205.894531 C 415.132812 195.371094 409.503906 187.972656 398.59375 187.148438 C 395.457031 186.898438 218.628906 186.957031 133.375 187.207031 C 125.96875 187.226562 121.949219 185.308594 119.691406 177.964844 C 116.628906 167.960938 112.320312 158.355469 108.761719 148.503906 C 105.910156 140.625 100.757812 136.808594 92.164062 137.003906 C 78.191406 137.308594 64.21875 136.886719 50.246094 137.175781 C 41.039062 137.367188 34.914062 143.308594 35.566406 151.320312 C 36.253906 159.929688 41.34375 164.546875 50.015625 164.71875 C 58.398438 164.875 66.839844 165.296875 75.167969 164.605469 C 82.671875 163.992188 85.984375 166.808594 88.625 173.804688 C 111.039062 233.289062 133.777344 292.636719 156.726562 351.90625 C 159.445312 358.941406 159.636719 363.175781 152.746094 368.410156 C 138.871094 378.972656 134.773438 397.757812 141.03125 413.957031 C 147.425781 430.421875 163.3125 440.640625 181.4375 439.910156 C 198.511719 439.222656 213.671875 427.625 218.039062 410.523438 C 219.953125 403.011719 219.550781 394.921875 220.21875 386.792969 C 246.671875 386.792969 273.414062 386.792969 300.496094 386.792969 C 300.210938 391.566406 299.691406 395.6875 299.730469 399.808594 " fill-opacity="1" fill-rule="nonzero"/></g><g clip-path="url(#clip-1)"><path fill="rgb(0%, 0%, 0%)" d="M 310.835938 6.101562 L 194.898438 6.101562 C 185.746094 6.101562 178.335938 13.515625 178.335938 22.671875 L 178.335938 138.671875 C 178.335938 147.828125 185.746094 155.242188 194.898438 155.242188 L 228.023438 155.242188 L 252.867188 180.101562 L 277.710938 155.242188 L 310.835938 155.242188 C 319.984375 155.242188 327.398438 147.828125 327.398438 138.671875 L 327.398438 22.671875 C 327.398438 13.515625 319.984375 6.101562 310.835938 6.101562 Z M 252.867188 33.445312 C 265.207031 33.445312 275.226562 43.46875 275.226562 55.816406 C 275.226562 68.160156 265.207031 78.1875 252.867188 78.1875 C 240.527344 78.1875 230.507812 68.160156 230.507812 55.816406 C 230.507812 43.46875 240.527344 33.445312 252.867188 33.445312 Z M 302.554688 122.101562 L 203.179688 122.101562 L 203.179688 114.644531 C 203.179688 98.070312 236.304688 88.957031 252.867188 88.957031 C 269.429688 88.957031 302.554688 98.070312 302.554688 114.644531 Z M 302.554688 122.101562 " fill-opacity="1" fill-rule="nonzero"/></g></svg>